<svg xmlns="http://www.w3.org/2000/svg" width="67.3791" height="69.5532" viewBox="0 0 67.3791 69.5532"><defs><style>.a{fill:none;}.b{fill:#114423;}.c{fill:#063;}</style></defs><polygon class="a" points="48.794 34.777 33.689 19.87 18.585 34.777 33.689 49.687 48.794 34.777"/><circle class="a" cx="7.7413" cy="7.7412" r="2.4953"/><path class="a" d="M61.1645,10.46a2.4954,2.4954,0,1,0-2.4953-2.4953A2.4953,2.4953,0,0,0,61.1645,10.46Z" transform="translate(-1.5268 -0.2234)"/><path class="a" d="M9.2681,59.54a2.4955,2.4955,0,1,0,2.4954,2.4955A2.4963,2.4963,0,0,0,9.2681,59.54Z" transform="translate(-1.5268 -0.2234)"/><path class="a" d="M61.1645,59.54a2.4955,2.4955,0,1,0,2.4911,2.4955A2.4963,2.4963,0,0,0,61.1645,59.54Z" transform="translate(-1.5268 -0.2234)"/><path class="b" d="M1.5268,7.9647a7.7419,7.7419,0,0,0,9.537,7.53l-.0043.0043A16.9129,16.9129,0,0,0,10.3729,33.27l3.4679-3.4722.4489-.4446a11.62,11.62,0,0,1,15.157-15.157l2.6056-2.61c.4443-.4444.9109-.8626,1.395-1.2587A16.9024,16.9024,0,0,0,16.6488,10.31,7.7427,7.7427,0,1,0,1.5268,7.9647ZM9.2681,5.4693A2.4954,2.4954,0,1,1,6.7728,7.9647,2.5018,2.5018,0,0,1,9.2681,5.4693Z" transform="translate(-1.5268 -0.2234)"/><path class="b" d="M61.1645,54.2938a7.5075,7.5075,0,0,0-1.7911.2113A16.9117,16.9117,0,0,0,60.0557,36.73l-3.9171,3.9167a11.6108,11.6108,0,0,1-15.157,15.1572l-2.6053,2.61a18.1145,18.1145,0,0,1-1.3951,1.2588,16.9417,16.9417,0,0,0,14.77,1.0122,17.3006,17.3006,0,0,0,2.0334-.99,7.7422,7.7422,0,1,0,7.38-5.4Zm0,10.2369a2.4955,2.4955,0,1,1,2.4911-2.4954A2.4962,2.4962,0,0,1,61.1645,64.5307Z" transform="translate(-1.5268 -0.2234)"/><path class="c" d="M36.9505,56.9873,58.929,35.0043,58.9333,35H58.929v-.0045L36.9505,13.017a16.4315,16.4315,0,0,0-1.7342-1.514,16.0168,16.0168,0,0,0-1.7337,1.514L15.2711,31.2284,11.5,34.9955,11.495,35l.0046.0043,21.983,21.983a17.012,17.012,0,0,0,1.7337,1.5139A17.4807,17.4807,0,0,0,36.9505,56.9873ZM20.1122,35,35.2163,20.0938,50.3206,35l-15.1043,14.91Z" transform="translate(-1.5268 -0.2234)"/><path class="b" d="M38.3763,11.5867l2.6053,2.61a11.6107,11.6107,0,0,1,15.157,15.157L60.0557,33.27a16.9036,16.9036,0,0,0-.6823-17.7711l-.0043-.0043A7.7268,7.7268,0,1,0,53.7843,10.31a16.911,16.911,0,0,0-16.8031.0176A17.917,17.917,0,0,1,38.3763,11.5867ZM61.1645,5.4693a2.4954,2.4954,0,1,1-2.4953,2.4954A2.4981,2.4981,0,0,1,61.1645,5.4693Z" transform="translate(-1.5268 -0.2234)"/><path class="b" d="M33.4473,59.6719a17.8605,17.8605,0,0,1-1.395-1.2588l-2.6056-2.61A11.6128,11.6128,0,0,1,14.29,40.6463L10.3729,36.73A16.921,16.921,0,0,0,11.06,54.5051a7.5051,7.5051,0,0,0-1.7914-.2113,7.74,7.74,0,1,0,7.3807,5.4044,16.9247,16.9247,0,0,0,16.7985-.0263ZM9.2681,64.5307a2.4955,2.4955,0,1,1,2.4954-2.4954A2.4962,2.4962,0,0,1,9.2681,64.5307Z" transform="translate(-1.5268 -0.2234)"/></svg>